<?xml version="1.0" encoding="UTF-8" standalone="no"?>
<!-- Created with Inkscape (http://www.inkscape.org/) -->

<svg
   width="1920"
   height="1080"
   viewBox="0 0 507.99999 285.75"
   version="1.1"
   id="svg1"
   inkscape:export-filename="StarBackground2.svg"
   inkscape:export-xdpi="96"
   inkscape:export-ydpi="96"
   sodipodi:docname="StarBackground2.svg"
   inkscape:version="1.3.2 (091e20e, 2023-11-25, custom)"
   xmlns:inkscape="http://www.inkscape.org/namespaces/inkscape"
   xmlns:sodipodi="http://sodipodi.sourceforge.net/DTD/sodipodi-0.dtd"
   xmlns="http://www.w3.org/2000/svg"
   xmlns:svg="http://www.w3.org/2000/svg">
  <sodipodi:namedview
     id="namedview1"
     pagecolor="#ffffff"
     bordercolor="#000000"
     borderopacity="0.25"
     inkscape:showpageshadow="2"
     inkscape:pageopacity="0.0"
     inkscape:pagecheckerboard="0"
     inkscape:deskcolor="#d1d1d1"
     inkscape:document-units="mm"
     inkscape:zoom="0.3145152"
     inkscape:cx="864.82306"
     inkscape:cy="825.07935"
     inkscape:window-width="1920"
     inkscape:window-height="1010"
     inkscape:window-x="1699"
     inkscape:window-y="-6"
     inkscape:window-maximized="1"
     inkscape:current-layer="layer1" />
  <defs
     id="defs1" />
  <g
     inkscape:label="Layer 1"
     inkscape:groupmode="layer"
     id="layer1">
    <path
       sodipodi:type="star"
       style="fill:#00ffff;fill-rule:evenodd;stroke-width:0.499999;stroke-linecap:square;stroke-linejoin:round;paint-order:stroke fill markers"
       id="path1"
       inkscape:flatsided="false"
       sodipodi:sides="5"
       sodipodi:cx="40.596867"
       sodipodi:cy="28.625996"
       sodipodi:r1="5.5327001"
       sodipodi:r2="3.6150775"
       sodipodi:arg1="0.78539816"
       sodipodi:arg2="1.4137167"
       inkscape:rounded="0"
       inkscape:randomized="0"
       d="m 44.509076,32.538205 -3.346687,-0.341639 -3.077316,1.359101 -0.709264,-3.288461 -2.243526,-2.506715 2.908338,-1.690741 1.690741,-2.908338 2.506715,2.243526 3.288461,0.709264 -1.359102,3.077316 z"
       inkscape:transform-center-x="0.58885927"
       inkscape:transform-center-y="-0.58885893"
       transform="matrix(0.82244676,0,0,0.82244676,38.858752,26.742219)" />
    <path
       sodipodi:type="star"
       style="fill:#00ffff;fill-rule:evenodd;stroke-width:0.499999;stroke-linecap:square;stroke-linejoin:round;paint-order:stroke fill markers"
       id="path2"
       inkscape:flatsided="false"
       sodipodi:sides="5"
       sodipodi:cx="40.596867"
       sodipodi:cy="28.625996"
       sodipodi:r1="5.5327001"
       sodipodi:r2="3.6150775"
       sodipodi:arg1="0.78539816"
       sodipodi:arg2="1.4137167"
       inkscape:rounded="0"
       inkscape:randomized="0"
       d="m 44.509076,32.538205 -3.346687,-0.341639 -3.077316,1.359101 -0.709264,-3.288461 -2.243526,-2.506715 2.908338,-1.690741 1.690741,-2.908338 2.506715,2.243526 3.288461,0.709264 -1.359102,3.077316 z"
       inkscape:transform-center-x="0.58886142"
       inkscape:transform-center-y="-0.58886149"
       transform="matrix(0.82244676,0,0,0.82244676,215.62672,124.08889)" />
    <path
       sodipodi:type="star"
       style="fill:#ffffff;fill-rule:evenodd;stroke-width:0.499999;stroke-linecap:square;stroke-linejoin:round;paint-order:stroke fill markers"
       id="path3"
       inkscape:flatsided="false"
       sodipodi:sides="5"
       sodipodi:cx="40.596867"
       sodipodi:cy="28.625996"
       sodipodi:r1="5.5327001"
       sodipodi:r2="3.6150775"
       sodipodi:arg1="0.78539816"
       sodipodi:arg2="1.4137167"
       inkscape:rounded="0"
       inkscape:randomized="0"
       d="m 44.509076,32.538205 -3.346687,-0.341639 -3.077316,1.359101 -0.709264,-3.288461 -2.243526,-2.506715 2.908338,-1.690741 1.690741,-2.908338 2.506715,2.243526 3.288461,0.709264 -1.359102,3.077316 z"
       inkscape:transform-center-x="0.5888542"
       inkscape:transform-center-y="-0.58885864"
       transform="matrix(0.82244676,0,0,0.82244676,362.1262,46.719424)" />
    <path
       sodipodi:type="star"
       style="fill:#00ffff;fill-rule:evenodd;stroke-width:0.499999;stroke-linecap:square;stroke-linejoin:round;paint-order:stroke fill markers"
       id="path4"
       inkscape:flatsided="false"
       sodipodi:sides="5"
       sodipodi:cx="40.596867"
       sodipodi:cy="28.625996"
       sodipodi:r1="5.5327001"
       sodipodi:r2="3.6150775"
       sodipodi:arg1="0.78539816"
       sodipodi:arg2="1.4137167"
       inkscape:rounded="0"
       inkscape:randomized="0"
       d="m 44.509076,32.538205 -3.346687,-0.341639 -3.077316,1.359101 -0.709264,-3.288461 -2.243526,-2.506715 2.908338,-1.690741 1.690741,-2.908338 2.506715,2.243526 3.288461,0.709264 -1.359102,3.077316 z"
       inkscape:transform-center-x="0.58886492"
       inkscape:transform-center-y="-0.58886193"
       transform="matrix(0.82244676,0,0,0.82244676,412.37188,149.51442)" />
    <path
       sodipodi:type="star"
       style="fill:#00ffff;fill-rule:evenodd;stroke-width:0.499999;stroke-linecap:square;stroke-linejoin:round;paint-order:stroke fill markers"
       id="path5"
       inkscape:flatsided="false"
       sodipodi:sides="5"
       sodipodi:cx="40.596867"
       sodipodi:cy="28.625996"
       sodipodi:r1="5.5327001"
       sodipodi:r2="3.6150775"
       sodipodi:arg1="0.78539816"
       sodipodi:arg2="1.4137167"
       inkscape:rounded="0"
       inkscape:randomized="0"
       d="m 44.509076,32.538205 -3.346687,-0.341639 -3.077316,1.359101 -0.709264,-3.288461 -2.243526,-2.506715 2.908338,-1.690741 1.690741,-2.908338 2.506715,2.243526 3.288461,0.709264 -1.359102,3.077316 z"
       inkscape:transform-center-x="0.58885909"
       inkscape:transform-center-y="-0.5888577"
       transform="matrix(0.82244676,0,0,0.82244676,302.19459,211.86751)" />
    <path
       sodipodi:type="star"
       style="fill:#00ffff;fill-rule:evenodd;stroke-width:0.499999;stroke-linecap:square;stroke-linejoin:round;paint-order:stroke fill markers"
       id="path6"
       inkscape:flatsided="false"
       sodipodi:sides="5"
       sodipodi:cx="40.596867"
       sodipodi:cy="28.625996"
       sodipodi:r1="5.5327001"
       sodipodi:r2="3.6150775"
       sodipodi:arg1="0.78539816"
       sodipodi:arg2="1.4137167"
       inkscape:rounded="0"
       inkscape:randomized="0"
       d="m 44.509076,32.538205 -3.346687,-0.341639 -3.077316,1.359101 -0.709264,-3.288461 -2.243526,-2.506715 2.908338,-1.690741 1.690741,-2.908338 2.506715,2.243526 3.288461,0.709264 -1.359102,3.077316 z"
       inkscape:transform-center-x="0.58885893"
       inkscape:transform-center-y="-0.58885347"
       transform="matrix(0.82244676,0,0,0.82244676,19.486918,202.78697)" />
    <path
       sodipodi:type="star"
       style="fill:#ffffff;fill-rule:evenodd;stroke-width:0.499999;stroke-linecap:square;stroke-linejoin:round;paint-order:stroke fill markers"
       id="path7"
       inkscape:flatsided="false"
       sodipodi:sides="5"
       sodipodi:cx="40.596867"
       sodipodi:cy="28.625996"
       sodipodi:r1="5.5327001"
       sodipodi:r2="3.6150775"
       sodipodi:arg1="0.78539816"
       sodipodi:arg2="1.4137167"
       inkscape:rounded="0"
       inkscape:randomized="0"
       d="m 44.509076,32.538205 -3.346687,-0.341639 -3.077316,1.359101 -0.709264,-3.288461 -2.243526,-2.506715 2.908338,-1.690741 1.690741,-2.908338 2.506715,2.243526 3.288461,0.709264 -1.359102,3.077316 z"
       inkscape:transform-center-x="0.58885862"
       inkscape:transform-center-y="-0.58885971"
       transform="matrix(0.82244676,0,0,0.82244676,89.709808,73.997064)" />
    <path
       sodipodi:type="star"
       style="fill:#00ffff;fill-rule:evenodd;stroke-width:0.499999;stroke-linecap:square;stroke-linejoin:round;paint-order:stroke fill markers"
       id="path8"
       inkscape:flatsided="false"
       sodipodi:sides="5"
       sodipodi:cx="40.596867"
       sodipodi:cy="28.625996"
       sodipodi:r1="5.5327001"
       sodipodi:r2="3.6150775"
       sodipodi:arg1="0.78539816"
       sodipodi:arg2="1.4137167"
       inkscape:rounded="0"
       inkscape:randomized="0"
       d="m 44.509076,32.538205 -3.346687,-0.341639 -3.077316,1.359101 -0.709264,-3.288461 -2.243526,-2.506715 2.908338,-1.690741 1.690741,-2.908338 2.506715,2.243526 3.288461,0.709264 -1.359102,3.077316 z"
       inkscape:transform-center-x="0.58885979"
       inkscape:transform-center-y="-0.58885914"
       transform="matrix(0.82244676,0,0,0.82244676,281.00665,15.845571)" />
    <path
       sodipodi:type="star"
       style="fill:#ffffff;fill-rule:evenodd;stroke-width:0.499999;stroke-linecap:square;stroke-linejoin:round;paint-order:stroke fill markers"
       id="path9"
       inkscape:flatsided="false"
       sodipodi:sides="5"
       sodipodi:cx="40.596867"
       sodipodi:cy="28.625996"
       sodipodi:r1="5.5327001"
       sodipodi:r2="3.6150775"
       sodipodi:arg1="0.78539816"
       sodipodi:arg2="1.4137167"
       inkscape:rounded="0"
       inkscape:randomized="0"
       d="m 44.509076,32.538205 -3.346687,-0.341639 -3.077316,1.359101 -0.709264,-3.288461 -2.243526,-2.506715 2.908338,-1.690741 1.690741,-2.908338 2.506715,2.243526 3.288461,0.709264 -1.359102,3.077316 z"
       inkscape:transform-center-x="0.58885888"
       inkscape:transform-center-y="-0.58885639"
       transform="matrix(0.82244676,0,0,0.82244676,396.63227,207.02455)" />
    <path
       sodipodi:type="star"
       style="fill:#ffffff;fill-rule:evenodd;stroke-width:0.499999;stroke-linecap:square;stroke-linejoin:round;paint-order:stroke fill markers"
       id="path10"
       inkscape:flatsided="false"
       sodipodi:sides="5"
       sodipodi:cx="40.596867"
       sodipodi:cy="28.625996"
       sodipodi:r1="5.5327001"
       sodipodi:r2="3.6150775"
       sodipodi:arg1="0.78539816"
       sodipodi:arg2="1.4137167"
       inkscape:rounded="0"
       inkscape:randomized="0"
       d="m 44.509076,32.538205 -3.346687,-0.341639 -3.077316,1.359101 -0.709264,-3.288461 -2.243526,-2.506715 2.908338,-1.690741 1.690741,-2.908338 2.506715,2.243526 3.288461,0.709264 -1.359102,3.077316 z"
       inkscape:transform-center-x="0.5888544"
       inkscape:transform-center-y="-0.58885918"
       transform="matrix(0.82244676,0,0,0.82244676,196.25489,15.845565)"
       inkscape:export-filename="StarBackground2.svg"
       inkscape:export-xdpi="96"
       inkscape:export-ydpi="96" />
  </g>
</svg>
